<svg xmlns="http://www.w3.org/2000/svg" width="19" height="20" viewBox="0 0 19 20">
  <defs>
    <linearGradient id="awardgold-a" x1="50%" x2="50%" y1="0%" y2="100%">
      <stop offset="0%" stop-color="#FFF" stop-opacity=".5"/>
      <stop offset="100%" stop-color="#FFF" stop-opacity=".5"/>
    </linearGradient>
  </defs>
  <g fill="none" fill-rule="evenodd">
    <path fill="#FC0" fill-rule="nonzero" d="M8.9746134,1.11961524 L14.4492268,4.28038476 C15.0061487,4.60192379 15.3492268,5.19615242 15.3492268,5.83923048 L15.3492268,12.1607695 C15.3492268,12.8038476 15.0061487,13.3980762 14.4492268,13.7196152 L8.9746134,16.8803848 C8.4176915,17.2019238 7.7315353,17.2019238 7.1746134,16.8803848 L1.7,13.7196152 C1.14307806,13.3980762 0.8,12.8038476 0.8,12.1607695 L0.8,5.83923048 C0.8,5.19615242 1.14307806,4.60192379 1.7,4.28038476 L7.1746134,1.11961524 C7.7315353,0.79807621 8.4176915,0.79807621 8.9746134,1.11961524 Z" transform="translate(1 1)"/>
    <path fill="url(#awardgold-a)" fill-opacity=".59" fill-rule="nonzero" d="M8.9746134,1.11961524 L14.4492268,4.28038476 C15.0061487,4.60192379 15.3492268,5.19615242 15.3492268,5.83923048 L15.3492268,12.1607695 C15.3492268,12.8038476 15.0061487,13.3980762 14.4492268,13.7196152 L8.9746134,16.8803848 C8.4176915,17.2019238 7.7315353,17.2019238 7.1746134,16.8803848 L1.7,13.7196152 C1.14307806,13.3980762 0.8,12.8038476 0.8,12.1607695 L0.8,5.83923048 C0.8,5.19615242 1.14307806,4.60192379 1.7,4.28038476 L7.1746134,1.11961524 C7.7315353,0.79807621 8.4176915,0.79807621 8.9746134,1.11961524 Z" style="mix-blend-mode:overlay" transform="translate(1 1)"/>
    <path stroke="#FFF" stroke-width="1.8" d="M10.4246134,1.34019238 L15.8992268,4.50096189 C16.7346097,4.98327044 17.2492268,5.87461339 17.2492268,6.83923048 L17.2492268,13.1607695 C17.2492268,14.1253866 16.7346097,15.0167296 15.8992268,15.4990381 L10.4246134,18.6598076 C9.5892305,19.1421162 8.5599963,19.1421162 7.7246134,18.6598076 L2.25,15.4990381 C1.41461709,15.0167296 0.9,14.1253866 0.9,13.1607695 L0.9,6.83923048 C0.9,5.87461339 1.41461709,4.98327044 2.25,4.50096189 L7.7246134,1.34019238 C8.5599963,0.85788383 9.5892305,0.85788383 10.4246134,1.34019238 Z"/>
    <path fill="#FFF" fill-rule="nonzero" d="M7.4091789,12.3760036 L5.33080773,12.3951182 C5.16512932,12.3966419 5.02958519,12.2635683 5.02806146,12.0978899 C5.02755995,12.0433588 5.04193177,11.9897224 5.06963162,11.9427479 L6.12537092,10.152383 C6.18081472,10.0583592 6.18081472,9.9416408 6.12537092,9.847617 L5.06963162,8.0572521 C4.98547282,7.91453223 5.03294594,7.73061075 5.17566579,7.64645195 C5.22264031,7.6187521 5.27627668,7.60438027 5.33080773,7.60488179 L7.4091789,7.62399638 C7.5183278,7.62500021 7.6194089,7.56664103 7.673114,7.4716134 L8.6957458,5.66213388 C8.7772654,5.51789029 8.9602827,5.46704247 9.1045263,5.5485621 C9.1520023,5.57539329 9.1912669,5.61465784 9.2180981,5.66213388 L10.2407299,7.4716134 C10.294435,7.56664103 10.3955161,7.62500021 10.504665,7.62399638 L12.5830361,7.60488179 C12.7487146,7.60335806 12.8842587,7.73643173 12.8857824,7.90211015 C12.8862839,7.9566412 12.8719121,8.0102776 12.8442123,8.0572521 L11.788473,9.847617 C11.7330292,9.9416408 11.7330292,10.0583592 11.788473,10.152383 L12.8442123,11.9427479 C12.9283711,12.0854678 12.8808979,12.2693893 12.7381781,12.3535481 C12.6912036,12.3812479 12.6375672,12.3956197 12.5830361,12.3951182 L10.504665,12.3760036 C10.3955161,12.3749998 10.294435,12.433359 10.2407299,12.5283866 L9.2180981,14.3378661 C9.1365784,14.4821097 8.9535612,14.5329575 8.8093176,14.4514379 C8.7618416,14.4246067 8.722577,14.3853422 8.6957458,14.3378661 L7.673114,12.5283866 C7.6194089,12.433359 7.5183278,12.3749998 7.4091789,12.3760036 Z"/>
  </g>
</svg>
